<?xml version="1.0" encoding="UTF-8" ?>
<!DOCTYPE svg PUBLIC "-//W3C//DTD SVG 1.1//EN" "http://www.w3.org/Graphics/SVG/1.1/DTD/svg11.dtd">
<svg width="132pt" height="167pt" viewBox="0 0 132 167" version="1.1" xmlns="http://www.w3.org/2000/svg">
<g id="#ffffffff">
</g>
<g id="#a68a25ff">
<path fill="#a68a25" opacity="1.00" d=" M 62.08 4.92 C 61.81 3.15 63.15 1.32 65.08 1.76 C 67.26 1.98 66.62 4.51 66.84 6.01 C 66.81 16.48 66.88 26.95 66.78 37.42 C 69.81 38.05 72.85 38.69 75.88 39.35 C 78.96 31.69 82.40 24.18 85.73 16.63 C 86.39 14.81 88.69 15.45 90.16 15.01 C 90.31 17.09 89.93 19.15 89.01 21.03 C 85.94 27.73 83.02 34.50 80.15 41.29 C 82.89 42.94 85.47 44.83 87.99 46.79 C 93.28 40.83 99.12 35.38 104.45 29.46 C 107.29 26.63 109.80 23.38 113.17 21.15 C 114.73 21.33 116.31 22.80 115.67 24.46 C 114.81 26.49 113.02 27.95 111.59 29.58 C 104.68 36.53 97.96 43.65 91.18 50.73 C 92.39 52.65 93.59 54.58 94.80 56.51 C 100.89 54.07 107.06 51.83 113.14 49.37 C 115.35 48.58 117.60 47.52 120.01 47.73 C 120.72 48.83 121.54 50.53 120.58 51.72 C 119.43 52.60 118.05 53.10 116.72 53.64 C 108.40 56.62 100.07 59.60 91.80 62.74 C 89.02 54.54 83.14 47.04 74.68 44.28 C 63.21 39.55 49.20 44.04 41.99 53.96 C 39.96 56.60 38.53 59.62 37.32 62.71 C 28.01 58.98 18.43 55.95 9.01 52.51 C 8.88 50.59 9.38 47.79 11.90 48.31 C 19.59 50.78 27.08 53.85 34.72 56.49 C 35.96 54.32 37.30 52.21 38.68 50.13 C 30.88 41.62 22.49 33.67 14.84 25.04 C 13.01 23.08 15.99 19.86 17.99 21.84 C 26.19 29.87 33.83 38.45 41.99 46.54 C 44.49 44.45 47.18 42.62 49.93 40.88 C 46.85 34.00 43.79 27.11 40.66 20.26 C 40.11 18.90 39.32 17.48 39.64 15.96 C 41.00 14.91 43.70 14.57 44.26 16.63 C 47.67 24.01 50.88 31.49 54.19 38.91 C 56.65 38.56 59.17 38.35 61.54 37.54 C 62.39 36.25 61.90 34.51 62.08 33.04 C 62.06 23.67 61.99 14.29 62.08 4.92 Z" />
<path fill="#a68a25" opacity="1.00" d=" M 118.50 63.59 C 121.02 63.18 123.53 62.51 126.09 62.52 C 127.48 63.02 128.50 64.28 128.03 65.81 C 126.51 67.53 124.05 67.47 121.99 67.96 C 95.31 72.25 70.71 86.74 53.14 107.13 C 49.06 111.47 46.04 116.67 42.12 121.13 C 40.64 123.05 37.07 120.54 38.51 118.47 C 56.06 90.20 85.84 69.86 118.50 63.59 Z" />
<path fill="#a68a25" opacity="1.00" d=" M 1.88 69.03 C 23.40 63.79 47.10 67.42 65.56 79.86 C 65.37 80.70 65.00 82.38 64.81 83.22 C 62.60 83.16 60.50 82.45 58.60 81.33 C 45.67 74.31 30.82 70.60 16.08 71.81 C 11.97 71.93 8.01 73.11 3.93 73.46 C 1.78 73.05 2.09 70.66 1.88 69.03 Z" />
<path fill="#a68a25" opacity="1.00" d=" M 56.89 121.92 C 71.95 99.09 97.26 84.02 124.08 79.74 C 126.02 80.47 125.96 82.58 124.88 84.02 C 122.09 85.42 118.89 85.59 115.90 86.36 C 105.47 89.07 95.40 93.33 86.46 99.38 C 77.93 105.37 70.22 112.52 63.69 120.65 C 62.13 122.56 60.78 124.66 58.90 126.29 C 57.73 125.99 56.57 125.65 55.42 125.26 C 55.84 124.11 56.33 123.00 56.89 121.92 Z" />
<path fill="#a68a25" opacity="1.00" d=" M 8.07 83.24 C 22.98 79.78 39.31 81.98 52.68 89.51 C 54.86 90.25 54.32 94.14 51.91 94.03 C 49.53 93.98 47.50 92.53 45.36 91.66 C 35.62 86.98 24.45 85.82 13.83 87.37 C 11.26 87.77 8.66 87.99 6.05 87.90 C 6.23 86.18 5.56 83.39 8.07 83.24 Z" />
<path fill="#a68a25" opacity="1.00" d=" M 17.88 98.09 C 26.57 96.47 36.20 97.19 43.89 101.82 C 42.98 102.80 42.67 104.92 40.93 104.69 C 36.25 104.05 31.75 102.13 26.96 102.27 C 23.59 102.23 20.29 103.07 16.94 103.11 C 15.30 103.01 14.88 101.43 14.67 100.08 C 14.71 98.45 16.75 98.49 17.88 98.09 Z" />
<path fill="#a68a25" opacity="1.00" d=" M 107.48 100.60 C 109.80 99.39 111.99 101.39 111.92 103.78 C 110.91 105.05 109.26 105.35 107.81 105.82 C 102.26 107.25 96.71 109.50 92.59 113.59 C 89.93 115.90 88.08 118.95 85.61 121.43 C 83.83 123.87 79.78 120.30 82.07 118.25 C 87.62 109.27 97.21 102.84 107.48 100.60 Z" />
<path fill="#a68a25" opacity="1.00" d=" M 29.32 166.44 C 32.43 158.74 35.36 150.93 38.94 143.45 C 42.69 151.06 45.68 159.05 48.69 166.99 C 44.81 166.97 44.47 162.77 43.20 160.09 C 40.38 160.09 37.56 160.09 34.74 160.09 C 33.51 162.67 33.14 166.92 29.32 166.44 M 35.54 157.98 C 37.83 157.99 40.11 158.00 42.40 157.99 C 41.31 155.18 40.23 152.36 39.02 149.60 C 37.70 152.32 36.62 155.15 35.54 157.98 Z" />
<path fill="#a68a25" opacity="1.00" d=" M 75.04 143.41 C 79.30 148.44 82.63 154.15 86.76 159.27 C 86.87 154.29 86.77 149.31 86.89 144.33 C 87.48 144.60 88.64 145.15 89.22 145.42 C 89.84 152.59 89.20 159.81 89.52 167.00 L 88.58 167.00 C 85.22 161.87 81.72 156.82 77.91 152.01 C 77.66 156.66 77.69 161.31 77.75 165.96 C 77.04 165.99 75.63 166.05 74.93 166.08 C 74.97 158.52 74.81 150.97 75.04 143.41 Z" />
<path fill="#a68a25" opacity="1.00" d=" M 51.12 144.78 C 56.33 144.18 57.51 150.47 60.45 153.52 C 62.44 150.72 64.41 147.90 66.30 145.03 C 67.14 145.01 68.83 144.97 69.67 144.95 C 67.34 148.71 64.32 152.03 62.16 155.90 C 61.63 159.25 61.94 162.66 61.92 166.04 C 61.19 166.17 59.73 166.43 59.00 166.56 C 58.92 163.08 59.18 159.58 58.82 156.11 C 56.64 152.09 53.52 148.67 51.12 144.78 Z" />
<path fill="#a68a25" opacity="1.00" d=" M 96.00 144.98 C 96.73 144.99 98.18 145.01 98.91 145.02 C 98.90 152.00 98.90 158.99 98.91 165.97 C 98.18 166.02 96.73 166.13 96.00 166.19 C 96.00 159.12 96.00 152.05 96.00 144.98 Z" />
</g>
</svg>
