<?xml version="1.0" encoding="UTF-8" ?>
<!DOCTYPE svg PUBLIC "-//W3C//DTD SVG 1.1//EN" "http://www.w3.org/Graphics/SVG/1.1/DTD/svg11.dtd">
<svg width="342pt" height="198pt" viewBox="0 0 342 198" version="1.1" xmlns="http://www.w3.org/2000/svg">
<g id="#ffffffff">
</g>
<g id="#a68a25ff">
<path fill="#a68a25" opacity="1.00" d=" M 168.13 17.97 C 168.12 15.57 171.02 15.51 172.66 16.29 C 172.99 27.97 172.84 39.66 172.74 51.35 C 175.77 52.09 178.83 52.70 181.89 53.35 C 184.89 45.66 188.51 38.23 191.67 30.61 C 192.29 28.89 194.37 29.24 195.81 29.13 C 196.41 30.55 196.38 32.10 195.66 33.47 C 192.45 40.77 189.13 48.02 186.15 55.42 C 189.03 56.80 191.46 58.89 193.97 60.82 C 201.68 52.59 209.47 44.40 217.41 36.39 C 218.77 34.39 220.87 35.61 222.08 37.06 C 221.57 39.80 219.36 41.63 217.57 43.58 C 210.71 50.57 203.89 57.62 197.21 64.77 C 198.39 66.70 199.60 68.61 200.82 70.52 C 208.54 67.59 216.15 64.28 224.02 61.77 C 226.37 60.74 227.61 63.93 226.70 65.68 C 225.48 66.58 224.04 67.10 222.65 67.66 C 214.33 70.63 206.03 73.63 197.76 76.75 C 195.17 69.01 189.84 61.82 182.02 58.83 C 175.28 55.81 167.35 55.54 160.51 58.40 C 152.34 61.48 146.14 68.63 143.29 76.78 C 134.21 72.83 124.57 70.27 115.41 66.51 C 113.78 64.47 116.19 61.30 118.55 62.45 C 125.98 65.06 133.33 67.90 140.77 70.49 C 141.94 68.28 143.25 66.16 144.72 64.14 C 136.84 55.71 128.59 47.62 120.82 39.10 C 118.98 37.03 122.08 33.82 124.12 35.88 C 132.20 44.00 139.91 52.48 148.03 60.58 C 150.45 58.38 153.19 56.60 155.95 54.88 C 152.30 46.88 148.77 38.83 145.15 30.81 C 146.24 29.09 149.50 28.15 150.27 30.60 C 153.60 38.01 156.90 45.43 160.16 52.87 C 162.39 52.61 164.63 52.38 166.81 51.80 C 168.69 51.58 167.84 49.22 168.08 47.99 C 168.09 37.98 167.93 27.97 168.13 17.97 Z" />
<path fill="#a68a25" opacity="1.00" d=" M 224.51 77.62 C 227.52 77.49 231.76 74.88 233.94 78.03 C 234.92 80.74 231.48 81.45 229.54 81.68 C 202.53 85.72 177.46 100.05 159.61 120.62 C 155.33 125.07 152.16 130.44 148.16 135.12 C 147.00 136.81 143.77 135.13 144.24 133.23 C 144.76 131.34 146.18 129.87 147.23 128.26 C 165.09 102.21 193.47 83.50 224.51 77.62 Z" />
<path fill="#a68a25" opacity="1.00" d=" M 108.07 83.04 C 129.54 77.73 153.24 81.48 171.63 93.92 C 171.51 95.76 170.25 98.16 168.08 97.01 C 159.00 92.19 149.38 88.13 139.18 86.47 C 129.77 85.09 120.13 85.40 110.84 87.44 C 108.27 87.91 107.51 84.99 108.07 83.04 Z" />
<path fill="#a68a25" opacity="1.00" d=" M 162.08 137.11 C 177.08 113.66 202.76 98.13 230.05 93.71 C 232.13 94.38 231.64 96.63 231.05 98.18 C 226.07 99.77 220.79 100.20 215.91 102.15 C 195.62 108.21 178.62 122.32 166.16 139.14 C 164.87 141.62 160.80 139.65 162.08 137.11 Z" />
<path fill="#a68a25" opacity="1.00" d=" M 119.14 96.20 C 132.82 94.53 147.24 96.76 159.19 103.82 C 160.85 104.87 160.03 108.14 157.93 108.02 C 155.75 108.11 153.90 106.74 151.98 105.93 C 141.16 100.58 128.59 99.63 116.83 101.81 C 115.12 102.09 111.78 102.76 112.00 100.00 C 111.75 96.30 116.68 96.94 119.14 96.20 Z" />
<path fill="#a68a25" opacity="1.00" d=" M 123.92 112.09 C 129.46 111.00 135.24 110.97 140.74 112.30 C 143.87 113.07 147.23 113.60 149.67 115.90 C 148.95 117.01 148.70 119.04 146.91 118.74 C 142.25 117.97 137.74 116.16 132.96 116.26 C 129.62 116.21 126.35 117.02 123.03 117.18 C 121.38 117.03 120.84 115.41 120.64 114.02 C 120.91 112.49 122.73 112.41 123.92 112.09 Z" />
<path fill="#a68a25" opacity="1.00" d=" M 188.02 132.25 C 194.10 122.54 204.66 116.02 215.86 114.03 C 217.60 115.24 218.98 118.51 216.02 119.18 C 209.76 120.79 203.24 122.88 198.60 127.62 C 195.62 130.03 193.81 133.52 190.97 136.05 C 188.79 137.04 186.26 134.13 188.02 132.25 Z" />
<path fill="#a68a25" opacity="1.00" d=" M 59.18 179.99 C 62.18 172.33 65.28 164.69 68.63 157.18 C 72.11 164.66 74.90 172.44 78.21 180.01 C 77.45 180.01 75.95 180.01 75.19 180.01 C 74.46 178.04 73.70 176.09 72.93 174.15 C 70.03 174.06 67.14 174.05 64.25 174.21 C 63.53 176.16 62.78 178.11 62.00 180.05 C 61.30 180.03 59.88 180.00 59.18 179.99 M 68.44 163.71 C 67.33 166.46 66.30 169.24 65.21 172.00 C 67.52 172.00 69.85 172.08 72.12 171.64 C 70.84 169.02 70.01 166.19 68.44 163.71 Z" />
<path fill="#a68a25" opacity="1.00" d=" M 116.94 180.01 C 120.08 172.35 123.10 164.64 126.51 157.10 C 129.77 164.72 132.94 172.38 135.95 180.10 C 131.99 181.25 132.07 176.58 130.82 174.17 C 127.93 174.06 125.04 174.06 122.15 174.17 C 121.38 176.10 120.61 178.05 119.88 180.00 C 119.15 180.00 117.68 180.00 116.94 180.01 M 126.32 163.67 C 125.20 166.44 124.12 169.22 123.00 171.98 C 125.32 171.97 127.64 171.97 129.97 171.98 C 128.77 169.20 127.86 166.29 126.32 163.67 Z" />
<path fill="#a68a25" opacity="1.00" d=" M 83.20 157.48 C 87.63 162.31 90.62 168.26 94.93 173.19 C 94.95 168.43 94.90 163.67 94.94 158.91 C 95.66 158.96 97.09 159.07 97.81 159.12 C 97.58 166.48 97.84 173.85 97.66 181.21 C 92.98 176.75 90.24 170.65 86.00 165.78 C 85.81 170.52 85.92 175.26 85.91 180.00 C 85.18 180.01 83.73 180.02 83.00 180.03 C 83.11 172.51 82.75 164.99 83.20 157.48 Z" />
<path fill="#a68a25" opacity="1.00" d=" M 253.43 158.10 C 254.42 158.35 255.30 158.87 255.72 159.85 C 258.78 164.63 262.24 169.15 265.43 173.84 C 265.09 168.93 265.40 164.01 265.20 159.10 C 265.91 159.05 267.34 158.96 268.06 158.92 C 267.99 166.39 268.29 173.87 267.89 181.34 C 265.99 179.97 265.27 177.00 262.99 176.38 L 263.91 176.17 C 261.20 172.81 259.21 168.90 256.12 165.86 C 256.17 170.57 256.18 175.28 256.15 179.99 C 255.50 180.00 254.19 180.01 253.53 180.01 C 253.46 172.71 253.62 165.40 253.43 158.10 Z" />
<path fill="#a68a25" opacity="1.00" d=" M 272.64 180.11 C 275.68 172.51 278.57 164.80 282.13 157.44 C 286.07 164.47 287.69 172.70 292.05 179.49 C 291.07 179.93 290.06 180.11 289.01 180.01 C 287.78 178.18 287.20 176.02 286.31 174.03 C 283.48 174.08 280.65 174.13 277.83 174.13 C 277.04 175.98 276.35 177.87 275.76 179.79 C 274.98 179.87 273.42 180.03 272.64 180.11 M 278.65 171.94 C 280.96 171.97 283.27 171.98 285.59 172.00 C 284.46 169.25 283.43 166.46 282.33 163.69 C 280.58 166.18 279.93 169.22 278.65 171.94 Z" />
<path fill="#a68a25" opacity="1.00" d=" M 16.02 162.04 C 21.18 155.90 33.24 158.08 34.80 166.34 C 31.41 166.86 30.87 162.94 28.27 161.81 C 25.11 160.28 20.78 160.56 18.36 163.34 C 15.71 165.63 15.86 169.42 16.04 172.60 C 16.10 173.76 17.39 174.04 18.15 174.65 C 19.54 177.51 23.19 178.46 26.11 177.85 C 29.11 177.14 31.34 174.73 32.67 172.05 C 29.75 171.99 26.83 172.01 23.92 172.00 C 23.92 171.51 23.92 170.53 23.93 170.04 C 27.75 169.96 31.57 170.00 35.39 170.00 C 35.40 178.12 25.45 182.82 18.77 178.90 C 12.70 175.87 11.32 166.86 16.02 162.04 Z" />
<path fill="#a68a25" opacity="1.00" d=" M 41.53 159.00 C 45.87 159.42 51.61 157.39 54.48 161.81 C 57.11 165.82 54.21 171.13 49.65 171.90 C 51.58 174.66 53.76 177.24 55.68 180.01 C 54.80 180.01 53.06 180.01 52.18 180.01 C 50.13 177.26 48.48 174.10 45.85 171.88 C 45.42 171.83 44.55 171.72 44.12 171.67 C 44.18 174.45 44.17 177.23 44.15 180.01 C 43.50 180.01 42.19 180.01 41.53 180.01 C 41.51 173.01 41.51 166.00 41.53 159.00 M 44.14 161.03 C 44.12 163.91 44.18 166.78 44.24 169.66 C 46.44 169.54 48.85 169.96 50.86 168.83 C 53.01 167.48 53.51 164.16 51.63 162.35 C 49.78 160.14 46.62 161.29 44.14 161.03 Z" />
<path fill="#a68a25" opacity="1.00" d=" M 109.69 158.99 C 110.33 158.99 111.60 159.00 112.24 159.00 C 112.07 165.03 112.66 171.11 111.94 177.10 C 110.58 180.74 105.93 180.59 102.79 179.91 C 102.65 179.28 102.37 178.02 102.23 177.40 C 104.59 177.83 108.48 179.08 109.40 175.88 C 110.05 170.29 109.46 164.61 109.69 158.99 Z" />
<path fill="#a68a25" opacity="1.00" d=" M 152.00 159.01 C 156.10 159.26 160.76 157.99 164.31 160.69 C 168.55 163.32 170.39 169.30 168.11 173.79 C 166.76 177.06 163.56 179.26 160.15 179.93 C 157.44 180.16 154.71 179.95 152.00 180.00 C 152.00 173.00 152.00 166.00 152.00 159.01 M 154.91 160.99 C 154.92 166.65 154.83 172.30 154.97 177.95 C 157.92 178.02 161.13 177.83 163.44 175.76 C 167.59 172.63 167.24 165.37 162.78 162.67 C 160.55 160.93 157.59 160.99 154.91 160.99 Z" />
<path fill="#a68a25" opacity="1.00" d=" M 174.93 159.00 C 179.31 158.99 183.69 159.00 188.07 159.00 C 188.07 159.50 188.07 160.50 188.07 161.00 C 184.62 160.99 181.17 161.01 177.73 161.00 C 177.72 163.40 177.72 165.80 177.73 168.20 C 181.04 168.49 184.40 167.96 187.69 168.53 C 187.62 169.03 187.50 170.02 187.44 170.51 C 184.31 170.38 181.17 170.42 178.04 170.29 C 177.60 172.84 177.67 175.43 177.74 178.00 C 181.19 178.00 184.63 178.00 188.08 178.00 C 188.08 178.50 188.07 179.50 188.06 180.00 C 183.68 180.00 179.31 180.03 174.93 180.00 C 174.92 173.00 174.92 166.00 174.93 159.00 Z" />
<path fill="#a68a25" opacity="1.00" d=" M 206.53 159.00 C 210.85 159.42 216.55 157.40 219.44 161.76 C 222.14 165.77 219.22 171.10 214.67 171.92 C 216.58 174.68 218.76 177.24 220.68 180.00 C 219.80 180.00 218.06 180.00 217.18 180.00 C 215.15 177.26 213.47 174.15 210.89 171.88 C 210.45 171.83 209.56 171.73 209.12 171.68 C 209.18 174.45 209.17 177.22 209.15 179.99 C 208.50 180.00 207.19 180.01 206.53 180.02 C 206.51 173.01 206.51 166.01 206.53 159.00 M 209.13 161.04 C 209.13 163.91 209.18 166.78 209.23 169.65 C 211.46 169.53 213.91 170.00 215.92 168.78 C 218.04 167.42 218.49 164.11 216.61 162.33 C 214.76 160.14 211.61 161.29 209.13 161.04 Z" />
<path fill="#a68a25" opacity="1.00" d=" M 230.56 159.98 C 235.27 157.40 241.97 158.36 245.19 162.86 C 248.39 166.95 248.05 173.53 244.16 177.08 C 239.41 182.19 229.74 180.97 226.54 174.70 C 223.62 169.74 225.56 162.79 230.56 159.98 M 232.52 161.72 C 226.38 164.63 226.49 174.53 232.76 177.23 C 238.57 180.36 245.88 174.29 244.61 168.05 C 243.85 162.61 237.44 159.13 232.52 161.72 Z" />
<path fill="#a68a25" opacity="1.00" d=" M 296.68 159.00 C 297.32 159.00 298.60 159.00 299.24 159.00 C 299.25 165.28 299.27 171.56 299.23 177.84 C 301.78 177.88 304.33 177.92 306.88 177.93 C 306.90 178.45 306.94 179.48 306.97 180.00 C 303.53 180.03 300.11 180.00 296.68 180.00 C 296.66 173.00 296.65 166.00 296.68 159.00 Z" />
<path fill="#a68a25" opacity="1.00" d=" M 312.00 159.01 C 316.10 159.25 320.77 157.99 324.32 160.69 C 328.35 163.22 330.24 168.75 328.39 173.17 C 327.15 176.72 323.79 179.23 320.16 179.93 C 317.44 180.17 314.72 179.95 312.00 179.99 C 312.00 173.00 312.00 166.00 312.00 159.01 M 314.91 160.99 C 314.90 166.64 314.87 172.28 314.93 177.93 C 317.90 178.03 321.13 177.84 323.46 175.75 C 327.60 172.60 327.23 165.31 322.74 162.65 C 320.51 160.93 317.58 160.98 314.91 160.99 Z" />
</g>
</svg>
